<?xml version="1.0"?>
<svg version="1.1" id="圖層_1" xmlns="http://www.w3.org/2000/svg" x="0" y="0" viewBox="0 0 100 100" xml:space="preserve"><path d="M80.2 90H19.8c-2.2 0-4-1.8-4-4V10h68.3v76c.1 2.2-1.7 4-3.9 4z" fill="#e0e0e0"/><path d="M80.2 90H19.8c-2.2 0-4-1.8-4-4V23.5h68.3V86c.1 2.2-1.7 4-3.9 4z" fill="#ccc"/><path fill="none" stroke="#c33737" stroke-width="2" stroke-miterlimit="10" d="M22.3 16.8h55.4"/><path d="M75.9 84.7H24.1c-2.4 0-4.4-1.9-4.4-4.4v-18c0-8.5 8-14.7 16.2-12.6l34.4 8.7c5.8 1.5 9.8 6.7 9.8 12.6v9.4c.1 2.3-1.8 4.3-4.2 4.3z" fill="#fff"/><metadata xmlns:d="https://loading.io/stock/"><d:name>powder</d:name><d:tags>powder,drug,pill,cure,remedy,pharmacy,treatment,medicine</d:tags><d:license>by</d:license><d:slug>kt8pz4</d:slug></metadata></svg>