<?xml version="1.0"?>
<svg version="1.1" id="圖層_1" xmlns="http://www.w3.org/2000/svg" x="0" y="0" viewBox="0 0 100 100" xml:space="preserve"><path d="M11 40.5v18.9c0 9.6 17.5 17.4 39 17.4S89 69 89 59.4V40.5c0-12.8-78-12.8-78 0z" fill="#e0e0e0" stroke="#333" stroke-width="3.5" stroke-miterlimit="10"/><path d="M69 25.3v5.5l-8.5-2v-5.1c-3.3-.4-6.8-.6-10.5-.6-21.5 0-39 7.8-39 17.4 0 4.8 4.4 9.2 11.4 12.3v5.5l8.5 2.5v-5.1C36.5 57.2 43.1 58 50 58c21.5 0 39-7.8 39-17.4 0-6.6-8.1-12.3-20-15.3z" fill="#fefefe" stroke-linejoin="round" stroke="#333" stroke-width="3.5" stroke-miterlimit="10"/><path fill="none" stroke="#333" stroke-width="3.5" stroke-miterlimit="10" d="M22.4 52.9l38.1-29.1"/><path fill="none" stroke="#333" stroke-width="3.5" stroke-miterlimit="10" d="M30.9 55.8L69 25.3"/><path d="M50 23.1c-21.5 0-39 7.8-39 17.4 0 4.8 4.4 9.2 11.4 12.3l38.1-29.1c-3.4-.3-6.9-.6-10.5-.6z" fill="#b3b3b3" stroke-linejoin="round" stroke="#333" stroke-width="3.5" stroke-miterlimit="10"/><path d="M69 25.3l-5.3 4.3-32.8 26.2C36.5 57.2 43.1 58 50 58c21.5 0 39-7.8 39-17.4 0-6.6-8.1-12.3-20-15.3z" fill="#b3b3b3" stroke-linejoin="round" stroke="#333" stroke-width="3.5" stroke-miterlimit="10"/><path fill="#666" stroke-linejoin="round" stroke="#333" stroke-width="3.5" stroke-miterlimit="10" d="M60.5 28.9v-5.1L22.4 52.9v5.4l8.5 2.6v-5.1l32.7-26.2z"/><path fill="none" stroke-width="3.5" stroke-linecap="round" stroke-miterlimit="10" stroke="#333" stroke-linejoin="round" d="M49.9 63.5v8"/><path fill="none" stroke-width="3.5" stroke-linecap="round" stroke-miterlimit="10" stroke="#333" stroke-linejoin="round" d="M56.4 63.2v8"/><path fill="none" stroke-width="3.5" stroke-linecap="round" stroke-miterlimit="10" stroke="#333" stroke-linejoin="round" d="M69.4 61.7v7"/><path fill="none" stroke-width="3.5" stroke-linecap="round" stroke-miterlimit="10" stroke="#333" stroke-linejoin="round" d="M75.4 59.8v6.8"/><g opacity=".2"><path d="M47 23.2l.7.2.2-.3c-.2.1-.5.1-.9.1z" stroke-width="3.5" stroke-miterlimit="10" stroke="#000" stroke-linejoin="round"/><path d="M89 40.4c-.2-6.5-8.2-12.1-20-15l-1.2.9c3.3 3.3 5.2 7.1 5.3 11.2v24.8c0 4.8-2.6 9.3-7 13C79.6 72.6 89 66.5 89 59.4V40.5v-.1z" stroke-width="3.5" stroke-miterlimit="10" stroke="#000" stroke-linejoin="round"/></g><metadata xmlns:d="https://loading.io/stock/"><d:name>troche</d:name><d:tags>troche,lozenge,tablet,pastille,pill,drug,medicine,remedy</d:tags><d:license>by</d:license><d:slug>u8cyuz</d:slug></metadata></svg>